<svg xmlns="http://www.w3.org/2000/svg">
  <defs>
    <g id="icon-close-12">
      <path d="M9.5 2.5L2.5 9.5M2.5 2.5L9.5 9.5" stroke="black"/>
    </g>
    <g id="icon-close-16">
      <path d="M3 3L13 13M13 3L3 13" stroke="black" stroke-width="1.5"/>
    </g>
    <g id="icon-close-20">
      <path d="M4.5 4.5L15.5 15.5M15.5 4.5L4.5 15.5" stroke="black" stroke-width="1.5"/>
    </g>
    <g id="icon-close-24">
      <path d="M19 5L5 19M5 5L19 19" stroke="black" stroke-width="2"/>
    </g>
    <g id="icon-close-28">
      <path d="M5.5 5.5L22.5 22.5M22.5 5.5L5.5 22.5" stroke="black" stroke-width="2"/>
    </g>
    <g id="icon-close-32">
      <path d="M25 7L7 25M7 7L25 25" stroke="black" stroke-width="2.5"/>
    </g>
    <g id="icon-close-48">
      <path d="M10 10L38 38M38 10L10 38" stroke="black" stroke-width="2"/>
    </g>
    <g id="icon-hamburger-menu-12">
      <rect x="1" y="2" width="10" height="1" fill="black"/>
      <rect x="1" y="5" width="10" height="1" fill="black"/>
      <rect x="1" y="8" width="10" height="1" fill="black"/>
    </g>
    <g id="icon-hamburger-menu-16">
      <rect x="2" y="4" width="12" height="1" fill="black"/>
      <rect x="2" y="7" width="12" height="1" fill="black"/>
      <rect x="2" y="10" width="12" height="1" fill="black"/>
    </g>
    <g id="icon-hamburger-menu-20">
      <rect x="3" y="5" width="14" height="1" fill="black"/>
      <rect x="3" y="9" width="14" height="1" fill="black"/>
      <rect x="3" y="13" width="14" height="1" fill="black"/>
    </g>
    <g id="icon-hamburger-menu-24">
      <rect x="2" y="5" width="20" height="2" fill="black"/>
      <rect x="2" y="11" width="20" height="2" fill="black"/>
      <rect x="2" y="17" width="20" height="2" fill="black"/>
    </g>
    <g id="icon-hamburger-menu-28">
      <rect x="3" y="6" width="22" height="2" fill="black"/>
      <rect x="3" y="13" width="22" height="2" fill="black"/>
      <rect x="3" y="20" width="22" height="2" fill="black"/>
    </g>
    <g id="icon-hamburger-menu-32">
      <rect x="4" y="8" width="24" height="2" fill="black"/>
      <rect x="4" y="15" width="24" height="2" fill="black"/>
      <rect x="4" y="22" width="24" height="2" fill="black"/>
    </g>
    <g id="icon-hamburger-menu-48">
      <rect x="6" y="12" width="36" height="3" fill="black"/>
      <rect x="6" y="22" width="36" height="3" fill="black"/>
      <rect x="6" y="32" width="36" height="3" fill="black"/>
    </g>
    <g id="icon-calculator-12">
      <rect x="8" y="8" width="1" height="1" fill="black"/>
      <rect x="6" y="8" width="1" height="1" fill="black"/>
      <rect x="4" y="8" width="1" height="1" fill="black"/>
      <rect x="8" y="6" width="1" height="1" fill="black"/>
      <rect x="6" y="6" width="1" height="1" fill="black"/>
      <rect x="4" y="6" width="1" height="1" fill="black"/>
      <rect x="3" y="3" width="6" height="2" fill="black"/>
      <rect x="2.5" y="1.5" width="7" height="9" rx="0.5" stroke="black" fill="none"/>
    </g>
    <g id="icon-calculator-16">
      <rect x="9" y="9" width="2" height="3" fill="black"/>
      <rect x="7" y="11" width="1" height="1" fill="black"/>
      <rect x="5" y="11" width="1" height="1" fill="black"/>
      <rect x="7" y="9" width="1" height="1" fill="black"/>
      <rect x="5" y="9" width="1" height="1" fill="black"/>
      <rect x="9" y="7" width="2" height="1" fill="black"/>
      <rect x="7" y="7" width="1" height="1" fill="black"/>
      <rect x="5" y="7" width="1" height="1" fill="black"/>
      <rect x="4" y="4" width="8" height="2" fill="black"/>
      <rect x="3.5" y="1.5" width="9" height="13" rx="0.5" stroke="black" fill="none"/>
    </g>
    <g id="icon-calculator-20">
      <rect x="12" y="11" width="2" height="5" fill="black"/>
      <rect x="9" y="14" width="2" height="2" fill="black"/>
      <rect x="6" y="14" width="2" height="2" fill="black"/>
      <rect x="9" y="11" width="2" height="2" fill="black"/>
      <rect x="6" y="11" width="2" height="2" fill="black"/>
      <rect x="12" y="8" width="2" height="2" fill="black"/>
      <rect x="9" y="8" width="2" height="2" fill="black"/>
      <rect x="6" y="8" width="2" height="2" fill="black"/>
      <rect x="6" y="4" width="8" height="3" fill="black"/>
      <rect x="4.5" y="2.5" width="11" height="15" rx="0.5" stroke="black" fill="none"/>
    </g>
    <g id="icon-calculator-24">
      <rect x="14" y="13" width="2" height="5" fill="black"/>
      <rect x="11" y="16" width="2" height="2" fill="black"/>
      <rect x="8" y="16" width="2" height="2" fill="black"/>
      <rect x="11" y="13" width="2" height="2" fill="black"/>
      <rect x="8" y="13" width="2" height="2" fill="black"/>
      <rect x="14" y="10" width="2" height="2" fill="black"/>
      <rect x="11" y="10" width="2" height="2" fill="black"/>
      <rect x="8" y="10" width="2" height="2" fill="black"/>
      <rect x="8" y="6" width="8" height="3" fill="black"/>
      <rect x="5" y="3" width="14" height="18" rx="1" stroke="black" stroke-width="2" fill="none"/>
    </g>
    <g id="icon-calculator-28">
      <rect x="17" y="15" width="2" height="7" fill="black"/>
      <rect x="13" y="19" width="3" height="3" fill="black"/>
      <rect x="9" y="19" width="3" height="3" fill="black"/>
      <rect x="13" y="15" width="3" height="3" fill="black"/>
      <rect x="9" y="15" width="3" height="3" fill="black"/>
      <rect x="17" y="11" width="2" height="3" fill="black"/>
      <rect x="13" y="11" width="3" height="3" fill="black"/>
      <rect x="9" y="11" width="3" height="3" fill="black"/>
      <rect x="8" y="6" width="12" height="3" fill="black"/>
      <rect x="5" y="3" width="18" height="22" rx="1" stroke="black" stroke-width="2" fill="none"/>
    </g>
    <g id="icon-calculator-32">
      <rect x="19" y="16" width="2" height="7" fill="black"/>
      <rect x="15" y="20" width="3" height="3" fill="black"/>
      <rect x="11" y="20" width="3" height="3" fill="black"/>
      <rect x="15" y="16" width="3" height="3" fill="black"/>
      <rect x="11" y="16" width="3" height="3" fill="black"/>
      <rect x="19" y="13" width="2" height="2" fill="black"/>
      <rect x="15" y="13" width="3" height="2" fill="black"/>
      <rect x="11" y="13" width="3" height="2" fill="black"/>
      <rect x="11" y="9" width="10" height="3" fill="black"/>
      <rect x="8" y="6" width="16" height="20" rx="1" stroke="black" stroke-width="2" fill="none"/>
    </g>
    <g id="icon-calculator-48">
      <rect x="29" y="27" width="4" height="11" fill="black"/>
      <rect x="22" y="34" width="4" height="4" fill="black"/>
      <rect x="15" y="34" width="4" height="4" fill="black"/>
      <rect x="22" y="27" width="4" height="4" fill="black"/>
      <rect x="15" y="27" width="4" height="4" fill="black"/>
      <rect x="29" y="20" width="4" height="4" fill="black"/>
      <rect x="22" y="20" width="4" height="4" fill="black"/>
      <rect x="15" y="20" width="4" height="4" fill="black"/>
      <rect x="14" y="10" width="20" height="6" fill="black"/>
      <rect x="9" y="5" width="30" height="38" rx="1" stroke="black" stroke-width="2" fill="none" />
    </g>
  </defs>
</svg>
